solid vcg
  facet normal -1.000000e+00 -0.000000e+00 -0.000000e+00
    outer loop
      vertex   0.000000e+00  1.000000e-02  1.000000e+00
      vertex   0.000000e+00  1.000000e-02  0.000000e+00
      vertex   0.000000e+00  3.388132e-18  1.000000e+00
    endloop
  endfacet
  facet normal -1.000000e+00  0.000000e+00  0.000000e+00
    outer loop
      vertex   0.000000e+00  3.388132e-18  1.000000e+00
      vertex   0.000000e+00  1.000000e-02  0.000000e+00
      vertex   0.000000e+00  3.388132e-18  0.000000e+00
    endloop
  endfacet
  facet normal  0.000000e+00  0.000000e+00  1.000000e+00
    outer loop
      vertex   1.000000e+00  1.000000e-02  1.000000e+00
      vertex   0.000000e+00  1.000000e-02  1.000000e+00
      vertex   1.000000e+00  3.388132e-18  1.000000e+00
    endloop
  endfacet
  facet normal  0.000000e+00  0.000000e+00  1.000000e+00
    outer loop
      vertex   1.000000e+00  3.388132e-18  1.000000e+00
      vertex   0.000000e+00  1.000000e-02  1.000000e+00
      vertex   0.000000e+00  3.388132e-18  1.000000e+00
    endloop
  endfacet
  facet normal  1.000000e+00  0.000000e+00 -0.000000e+00
    outer loop
      vertex   1.000000e+00  1.000000e-02  0.000000e+00
      vertex   1.000000e+00  1.000000e-02  1.000000e+00
      vertex   1.000000e+00  3.388132e-18  0.000000e+00
    endloop
  endfacet
  facet normal  1.000000e+00  0.000000e+00  0.000000e+00
    outer loop
      vertex   1.000000e+00  3.388132e-18  0.000000e+00
      vertex   1.000000e+00  1.000000e-02  1.000000e+00
      vertex   1.000000e+00  3.388132e-18  1.000000e+00
    endloop
  endfacet
  facet normal  0.000000e+00  0.000000e+00 -1.000000e+00
    outer loop
      vertex   0.000000e+00  1.000000e-02  0.000000e+00
      vertex   1.000000e+00  1.000000e-02  0.000000e+00
      vertex   0.000000e+00  3.388132e-18  0.000000e+00
    endloop
  endfacet
  facet normal  0.000000e+00  0.000000e+00 -1.000000e+00
    outer loop
      vertex   0.000000e+00  3.388132e-18  0.000000e+00
      vertex   1.000000e+00  1.000000e-02  0.000000e+00
      vertex   1.000000e+00  3.388132e-18  0.000000e+00
    endloop
  endfacet
  facet normal  0.000000e+00  1.000000e+00  0.000000e+00
    outer loop
      vertex   1.000000e+00  1.000000e-02  1.000000e+00
      vertex   1.000000e+00  1.000000e-02  0.000000e+00
      vertex   0.000000e+00  1.000000e-02  1.000000e+00
    endloop
  endfacet
  facet normal  0.000000e+00  1.000000e+00  0.000000e+00
    outer loop
      vertex   0.000000e+00  1.000000e-02  1.000000e+00
      vertex   1.000000e+00  1.000000e-02  0.000000e+00
      vertex   0.000000e+00  1.000000e-02  0.000000e+00
    endloop
  endfacet
  facet normal  0.000000e+00 -1.000000e+00  0.000000e+00
    outer loop
      vertex   1.000000e+00  0.000000e+00  0.000000e+00
      vertex   1.000000e+00  0.000000e+00  1.000000e+00
      vertex   0.000000e+00  0.000000e+00  0.000000e+00
    endloop
  endfacet
  facet normal  0.000000e+00 -1.000000e+00  0.000000e+00
    outer loop
      vertex   0.000000e+00  0.000000e+00  0.000000e+00
      vertex   1.000000e+00  0.000000e+00  1.000000e+00
      vertex   0.000000e+00  0.000000e+00  1.000000e+00
    endloop
  endfacet
endsolid vcg
